<svg xmlns="http://www.w3.org/2000/svg" viewBox="0 0 1200 1500" role="img" aria-labelledby="title desc">
  <title id="title">Executive software command center</title>
  <desc id="desc">A refined abstract command center with dashboards, code panels, and project signals.</desc>
  <rect width="1200" height="1500" fill="#071A2E"/>
  <path fill="#0D2946" d="M0 0h1200v560C1010 453 826 433 648 499 389 596 221 486 0 560V0Z"/>
  <path fill="#F8F5EF" fill-opacity=".08" d="M63 1114c210-81 346-32 514 39 193 81 382 108 623-16v363H0v-340c22-13 43-25 63-46Z"/>
  <g transform="translate(118 174)">
    <rect width="964" height="642" rx="18" fill="#10151D" stroke="#D8DDE6" stroke-opacity=".22"/>
    <rect x="32" y="34" width="900" height="72" rx="12" fill="#F4F1EA" fill-opacity=".08"/>
    <circle cx="78" cy="70" r="8" fill="#D6B16A"/>
    <circle cx="106" cy="70" r="8" fill="#D8DDE6" fill-opacity=".5"/>
    <circle cx="134" cy="70" r="8" fill="#D8DDE6" fill-opacity=".28"/>
    <rect x="690" y="58" width="196" height="18" rx="9" fill="#D8DDE6" fill-opacity=".22"/>
    <g transform="translate(32 138)">
      <rect width="268" height="210" rx="14" fill="#F8F5EF" fill-opacity=".09" stroke="#F4F1EA" stroke-opacity=".12"/>
      <rect x="24" y="28" width="118" height="14" rx="7" fill="#D6B16A"/>
      <rect x="24" y="66" width="206" height="10" rx="5" fill="#D8DDE6" fill-opacity=".24"/>
      <rect x="24" y="92" width="172" height="10" rx="5" fill="#D8DDE6" fill-opacity=".2"/>
      <path d="M28 164c48-52 88-18 122-44 43-33 64-11 90-54" fill="none" stroke="#7DD3FC" stroke-width="8" stroke-linecap="round"/>
    </g>
    <g transform="translate(330 138)">
      <rect width="570" height="210" rx="14" fill="#F8F5EF" fill-opacity=".09" stroke="#F4F1EA" stroke-opacity=".12"/>
      <rect x="28" y="30" width="208" height="14" rx="7" fill="#D8DDE6" fill-opacity=".35"/>
      <rect x="28" y="76" width="514" height="12" rx="6" fill="#D8DDE6" fill-opacity=".16"/>
      <rect x="28" y="108" width="430" height="12" rx="6" fill="#D8DDE6" fill-opacity=".16"/>
      <rect x="28" y="140" width="486" height="12" rx="6" fill="#D8DDE6" fill-opacity=".16"/>
      <rect x="402" y="28" width="112" height="38" rx="19" fill="#D6B16A"/>
    </g>
    <g transform="translate(32 382)">
      <rect width="868" height="200" rx="14" fill="#F8F5EF" fill-opacity=".09" stroke="#F4F1EA" stroke-opacity=".12"/>
      <g fill="#D8DDE6" fill-opacity=".18">
        <rect x="30" y="34" width="120" height="126" rx="10"/>
        <rect x="174" y="62" width="120" height="98" rx="10"/>
        <rect x="318" y="20" width="120" height="140" rx="10"/>
        <rect x="462" y="84" width="120" height="76" rx="10"/>
        <rect x="606" y="44" width="120" height="116" rx="10"/>
      </g>
      <path d="M32 165h796" stroke="#F4F1EA" stroke-opacity=".12" stroke-width="2"/>
    </g>
  </g>
  <g transform="translate(153 916)">
    <rect width="894" height="330" rx="18" fill="#F8F5EF"/>
    <rect x="36" y="40" width="264" height="250" rx="12" fill="#071A2E"/>
    <path d="M70 228c54-61 98-30 144-75 31-31 45-45 64-82" fill="none" stroke="#D6B16A" stroke-width="10" stroke-linecap="round"/>
    <rect x="338" y="52" width="208" height="18" rx="9" fill="#071A2E"/>
    <rect x="338" y="104" width="466" height="14" rx="7" fill="#335C81" fill-opacity=".45"/>
    <rect x="338" y="142" width="398" height="14" rx="7" fill="#335C81" fill-opacity=".33"/>
    <rect x="338" y="180" width="444" height="14" rx="7" fill="#335C81" fill-opacity=".33"/>
    <rect x="338" y="234" width="160" height="44" rx="8" fill="#071A2E"/>
    <rect x="520" y="234" width="160" height="44" rx="8" fill="#E5DDD0"/>
  </g>
</svg>
