<svg xmlns="http://www.w3.org/2000/svg" viewBox="0 0 1200 760" role="img" aria-labelledby="title desc">
  <title id="title">Systems architecture map</title>
  <desc id="desc">A refined systems architecture map with connected product, cloud, data, and AI nodes.</desc>
  <rect width="1200" height="760" fill="#06080C"/>
  <g stroke="#D8DDE6" stroke-opacity=".18" stroke-width="2">
    <path d="M226 213h285M690 213h284M326 546h236M640 546h230M512 213l94 142M690 213l-84 142M606 405v141"/>
  </g>
  <g font-family="Inter, Arial, sans-serif" font-weight="700">
    <rect x="94" y="128" width="264" height="170" rx="14" fill="#10151D" stroke="#667085"/>
    <text x="132" y="206" fill="#F4F1EA" font-size="28">Product</text>
    <text x="132" y="244" fill="#D8DDE6" font-size="18">Design systems</text>
    <rect x="468" y="128" width="264" height="170" rx="14" fill="#10151D" stroke="#667085"/>
    <text x="506" y="206" fill="#F4F1EA" font-size="28">Platform</text>
    <text x="506" y="244" fill="#D8DDE6" font-size="18">Cloud native</text>
    <rect x="842" y="128" width="264" height="170" rx="14" fill="#10151D" stroke="#667085"/>
    <text x="880" y="206" fill="#F4F1EA" font-size="28">AI</text>
    <text x="880" y="244" fill="#D8DDE6" font-size="18">Applied models</text>
    <rect x="230" y="460" width="264" height="170" rx="14" fill="#10151D" stroke="#667085"/>
    <text x="268" y="538" fill="#F4F1EA" font-size="28">Data</text>
    <text x="268" y="576" fill="#D8DDE6" font-size="18">Pipelines</text>
    <rect x="706" y="460" width="264" height="170" rx="14" fill="#10151D" stroke="#667085"/>
    <text x="744" y="538" fill="#F4F1EA" font-size="28">Security</text>
    <text x="744" y="576" fill="#D8DDE6" font-size="18">Governance</text>
    <circle cx="606" cy="380" r="86" fill="#D6B16A"/>
    <text x="545" y="374" fill="#06080C" font-size="24">Delivery</text>
    <text x="550" y="408" fill="#06080C" font-size="18">Engine</text>
  </g>
</svg>
