<svg xmlns="http://www.w3.org/2000/svg" viewBox="0 0 1200 760" role="img" aria-labelledby="title desc">
  <title id="title">Product team studio</title>
  <desc id="desc">A premium abstract studio scene showing a collaborative software team review wall.</desc>
  <rect width="1200" height="760" fill="#F8F5EF"/>
  <rect x="70" y="70" width="1060" height="620" rx="18" fill="#FFFFFF" stroke="#D8D1C4"/>
  <rect x="118" y="118" width="450" height="250" rx="12" fill="#071A2E"/>
  <path d="M160 300c58-52 100-36 150-82 48-43 86-22 150-84" fill="none" stroke="#D6B16A" stroke-width="10" stroke-linecap="round"/>
  <rect x="620" y="120" width="420" height="26" rx="13" fill="#071A2E"/>
  <rect x="620" y="178" width="350" height="14" rx="7" fill="#335C81" fill-opacity=".36"/>
  <rect x="620" y="214" width="406" height="14" rx="7" fill="#335C81" fill-opacity=".26"/>
  <rect x="620" y="250" width="308" height="14" rx="7" fill="#335C81" fill-opacity=".26"/>
  <g transform="translate(122 430)">
    <circle cx="70" cy="74" r="54" fill="#335C81"/>
    <rect x="24" y="138" width="92" height="76" rx="38" fill="#071A2E"/>
    <circle cx="248" cy="74" r="54" fill="#72522A"/>
    <rect x="202" y="138" width="92" height="76" rx="38" fill="#071A2E"/>
    <circle cx="426" cy="74" r="54" fill="#D6B16A"/>
    <rect x="380" y="138" width="92" height="76" rx="38" fill="#071A2E"/>
  </g>
  <g transform="translate(670 424)">
    <rect width="360" height="54" rx="8" fill="#F1EDE5"/>
    <rect y="80" width="300" height="54" rx="8" fill="#F1EDE5"/>
    <rect y="160" width="332" height="54" rx="8" fill="#F1EDE5"/>
    <rect x="24" y="20" width="172" height="14" rx="7" fill="#071A2E" fill-opacity=".52"/>
    <rect x="24" y="100" width="220" height="14" rx="7" fill="#071A2E" fill-opacity=".52"/>
    <rect x="24" y="180" width="190" height="14" rx="7" fill="#071A2E" fill-opacity=".52"/>
  </g>
</svg>
